<svg width="97" height="150" viewBox="0 0 97 150" fill="none" xmlns="http://www.w3.org/2000/svg">
<path d="M89.7638 51.6431C88.0891 50.5733 87.2141 48.6526 87.5372 46.7507C91.6536 22.3889 72.7957 0.345636 48.5337 0.0040446C23.2716 -0.3535 3.92954 22.3538 8.464 47.2453C8.8027 49.1156 8.04063 51.0331 6.52277 52.1279C2.32355 55.1591 0.00285363 60.058 0.316462 65.2254C1.13498 78.7148 18.0698 84.2447 26.7787 74.0623C26.901 74.1374 27.0265 74.2156 27.1488 74.2879C28.4283 75.0605 29.1904 76.3803 29.1904 77.8195V84.2853C29.1904 86.7378 30.1657 89.0273 31.9376 90.7321C37.5835 96.165 47.1538 92.2689 47.1538 84.1289V69.4765C47.1538 65.9073 51.3311 64.0148 53.8776 66.4832C54.6553 67.2371 55.0818 68.2443 55.0818 69.3201V76.8276C55.0818 81.8523 59.2412 85.9598 64.3929 85.7837C71.1637 85.5331 72.6031 80.4284 72.9763 76.5523C82.728 83.4198 96.2586 76.7237 96.7039 64.866C96.9015 59.5666 94.2421 54.4991 89.7638 51.6431ZM41.8225 20.8908C39.6802 21.6028 39.5451 21.9791 38.6017 21.9791C35.9194 21.9791 35.1232 18.3308 37.5417 17.2087C38.4198 16.8021 39.3293 16.4423 40.2482 16.1389C41.5653 15.7041 42.9828 16.4173 43.4188 17.7311C43.8515 19.0421 43.1396 20.4588 41.8225 20.8908ZM26.1045 37.1223C24.4759 37.1223 23.277 35.6021 23.6646 34.0224C24.5584 30.4 26.2895 26.9528 28.6792 24.0593C29.5573 22.9926 31.141 22.8393 32.2104 23.7152C33.2798 24.5942 33.4335 26.1708 32.5522 27.2375C30.6392 29.5585 29.2531 32.3144 28.5381 35.2173C28.2589 36.3594 27.2334 37.1223 26.1045 37.1223ZM77.9683 83.97C79.4429 84.2469 80.2956 85.799 79.743 87.1907L57.2987 143.717C53.9795 152.093 41.9345 152.097 38.614 143.717L16.2362 87.3653C15.6629 85.922 16.6034 84.337 18.1451 84.1227C19.1584 83.9816 20.1653 83.7636 21.1557 83.4664C22.6115 83.0297 24.1005 84.0126 24.2451 85.5219C24.479 87.9646 25.3599 91.3608 28.4531 94.336C36.1393 101.729 48.3321 97.99 51.4346 88.7379C51.9687 87.1451 53.9284 86.617 55.2365 87.6743C61.3578 92.6227 71.0837 91.6677 75.4971 84.9554C75.9863 84.2121 76.9061 83.7705 77.9683 83.97Z" fill="#64646A"/>
</svg>
